<svg width="111" height="117" viewBox="0 0 111 117" fill="none" xmlns="http://www.w3.org/2000/svg">
<g clip-path="url(#clip0_236_2)">
<path d="M111 98.0257H79.756V17.1089H90.0849V87.569H110.946V0.136258C110.551 0.119223 110.259 0.0936705 109.97 0.0936705C99.1494 0.0936705 88.3286 0.0879921 77.5078 0.0993489C76.7441 0.0993489 75.9718 0.139097 75.2223 0.264022C65.3512 1.90223 58.5291 9.88602 58.5291 19.8061C58.5234 51.8123 58.5291 83.8184 58.5291 115.825V117.006H111.003V98.0314L111 98.0257ZM52.4537 58.4986V57.0335C52.4537 44.6632 52.4623 32.2957 52.4394 19.9254C52.4394 18.6307 52.3336 17.3218 52.1419 16.0414C50.7918 7.14337 42.4281 0.00849493 33.3606 0.00281656C22.6485 -0.00286181 11.9364 -2.26255e-05 1.22424 -2.26255e-05H0V116.923H20.9094V17.0464H31.4156V58.4986H52.4537Z" fill="white"/>
<path d="M111 98.0257V117H58.5263V115.819C58.5263 83.8127 58.5234 51.8066 58.5263 19.8005C58.5263 9.88034 65.3483 1.89939 75.2195 0.25834C75.9689 0.133416 76.7441 0.0965062 77.5049 0.093667C88.3258 0.0823103 99.1466 0.0851495 109.967 0.0879887C110.256 0.0879887 110.548 0.113541 110.943 0.130576V87.569H90.082V17.1089H79.7532V98.0257H110.997H111Z" fill="white"/>
<path d="M52.4537 58.4985H31.4156V17.0464H20.9094V116.923H0V-3.97562e-05H1.22424C11.9364 -3.97562e-05 22.6485 -0.00571813 33.3635 -3.97562e-05C42.4281 0.00563861 50.7947 7.13767 52.1448 16.0385C52.3393 17.319 52.4422 18.6279 52.4422 19.9225C52.4651 32.2929 52.4566 44.6603 52.4566 57.0307V58.4957L52.4537 58.4985Z" fill="white"/>
</g>
<defs>
<clipPath id="clip0_236_2">
<rect width="111" height="117" fill="white"/>
</clipPath>
</defs>
</svg>
